<svg viewBox="0 0 386 43" fill="none" xmlns="http://www.w3.org/2000/svg">
<path d="M24.824 39.344L24.536 39.696C24.3227 39.9093 23.96 40.1867 23.448 40.528C22.9573 40.848 22.36 41.1787 21.656 41.52C20.9733 41.84 20.056 42.1067 18.904 42.32C17.752 42.5547 16.5147 42.672 15.192 42.672C12.3973 42.672 10.008 42.2133 8.024 41.296C6.04 40.3573 4.48267 39.0027 3.352 37.232C2.24267 35.44 1.44267 33.424 0.952 31.184C0.461333 28.9227 0.216 26.3093 0.216 23.344C0.216 20.1867 0.461333 17.4667 0.952 15.184C1.44267 12.88 2.25333 10.864 3.384 9.136C4.536 7.38667 6.11467 6.07467 8.12 5.2C10.1253 4.32533 12.568 3.888 15.448 3.888C16.7707 3.888 18.008 4.00533 19.16 4.24C20.3333 4.47467 21.2507 4.74133 21.912 5.04C22.5947 5.33867 23.2027 5.68 23.736 6.064C24.2907 6.448 24.632 6.71467 24.76 6.864C24.9093 7.01333 25.016 7.13067 25.08 7.216L24.6 14.576H19.736L18.072 10.768C17.688 10.6613 17.368 10.608 17.112 10.608C15.6827 10.608 14.584 10.9387 13.816 11.6C13.048 12.24 12.4613 13.5093 12.056 15.408C11.6507 17.2853 11.448 19.9947 11.448 23.536C11.448 25.648 11.576 27.4933 11.832 29.072C12.1093 30.6507 12.44 31.8667 12.824 32.72C13.208 33.552 13.6667 34.224 14.2 34.736C14.7333 35.248 15.2133 35.5787 15.64 35.728C16.0667 35.856 16.5253 35.92 17.016 35.92C18.104 35.92 19.2453 35.792 20.44 35.536C21.6347 35.2587 22.616 34.8427 23.384 34.288L24.824 39.344ZM40.7312 35.728C42.2459 35.728 43.3552 35.3013 44.0593 34.448C44.7632 33.5947 45.1152 32.5813 45.1152 31.408V29.168C45.1152 27.7813 44.6672 26.8 43.7712 26.224C42.8752 25.6267 41.8619 25.328 40.7312 25.328H38.2353V35.728H40.7312ZM44.6672 14.096C44.6672 12.816 44.3152 11.9307 43.6112 11.44C42.9072 10.928 41.8939 10.672 40.5712 10.672H38.2353V19.92H40.8273C42.0646 19.92 43.0139 19.44 43.6752 18.48C44.3366 17.4987 44.6672 16.304 44.6672 14.896V14.096ZM42.9072 42.288C41.2432 42.288 39.0886 42.2453 36.4433 42.16C33.7979 42.0747 31.8993 42.0213 30.7472 42H27.6752V4.496H33.2112C34.5552 4.496 36.0912 4.45333 37.8192 4.368C39.5472 4.26133 40.7952 4.208 41.5632 4.208C44.0592 4.208 46.1606 4.41067 47.8673 4.816C49.5952 5.22133 50.9499 5.82933 51.9313 6.64C52.9126 7.45067 53.6059 8.38933 54.0112 9.456C54.4379 10.5227 54.6513 11.792 54.6513 13.264C54.6513 15.5253 54.1286 17.4667 53.0833 19.088C52.0379 20.7093 50.5232 21.7227 48.5393 22.128C53.5739 22.576 56.0912 25.5307 56.0912 30.992C56.0912 32.6347 55.8459 34.128 55.3552 35.472C54.8646 36.7947 54.1073 37.9787 53.0833 39.024C52.0806 40.048 50.7153 40.848 48.9872 41.424C47.2592 42 45.2326 42.288 42.9072 42.288ZM69.9295 27.504C69.9295 31.0453 70.1962 33.5093 70.7295 34.896C71.2842 36.2827 72.2442 36.976 73.6095 36.976C74.6122 36.976 75.3695 36.7307 75.8815 36.24C76.3935 35.728 76.7775 34.6933 77.0335 33.136C77.3108 31.5573 77.4495 29.2 77.4495 26.064V18.352C77.4495 15.3013 77.1508 13.0293 76.5535 11.536C75.9562 10.0427 74.9748 9.296 73.6095 9.296C72.2442 9.296 71.2842 10.032 70.7295 11.504C70.1962 12.9547 69.9295 15.6107 69.9295 19.472V27.504ZM72.9375 42.672C71.1668 42.672 69.5668 42.512 68.1375 42.192C66.7295 41.872 65.5135 41.424 64.4895 40.848C63.4655 40.272 62.5695 39.536 61.8015 38.64C61.0548 37.744 60.4468 36.784 59.9775 35.76C59.5295 34.736 59.1668 33.5413 58.8895 32.176C58.6122 30.7893 58.4202 29.4133 58.3135 28.048C58.2068 26.6613 58.1535 25.104 58.1535 23.376C58.1535 20.816 58.2815 18.5867 58.5375 16.688C58.8148 14.7893 59.3162 13.008 60.0415 11.344C60.7668 9.65867 61.7268 8.29333 62.9215 7.248C64.1375 6.20267 65.6948 5.38133 67.5935 4.784C69.5135 4.18667 71.7748 3.888 74.3775 3.888C76.1695 3.888 77.7802 4.05867 79.2095 4.4C80.6388 4.72 81.8655 5.168 82.8895 5.744C83.9135 6.32 84.7988 7.06667 85.5455 7.984C86.3135 8.90133 86.9215 9.88267 87.3695 10.928C87.8388 11.952 88.2122 13.1573 88.4895 14.544C88.7668 15.9307 88.9588 17.3067 89.0655 18.672C89.1722 20.0373 89.2255 21.584 89.2255 23.312C89.2255 25.872 89.0868 28.1013 88.8095 30C88.5322 31.8987 88.0308 33.68 87.3055 35.344C86.5802 36.9867 85.6095 38.3307 84.3935 39.376C83.1775 40.4 81.6095 41.2107 79.6895 41.808C77.7908 42.384 75.5402 42.672 72.9375 42.672ZM108.038 42H97.9262L88.9983 4.496H99.6542L101.35 17.424L103.878 29.968L107.11 17.424L107.942 14L105.478 4.496H115.942L118.246 17.424L121.062 29.968L122.822 17.424L124.71 4.496H134.438L126.182 42H115.27L111.334 26.928L108.038 42ZM153.908 42V12.976H146.421V4.496H172.213V12.976H164.724V42H153.908ZM185.738 42H175.402V21.296L173.482 20.112V16.496L180.362 14.8H182.954L183.882 22.416C184.757 17.1893 187.562 14.576 192.298 14.576C192.832 14.576 193.386 14.672 193.962 14.864L192.874 26.256C192.426 25.8507 191.445 25.648 189.93 25.648C187.754 25.648 186.357 26.224 185.738 27.376V42ZM210.32 39.152L210 39.504C209.787 39.76 209.456 40.0587 209.008 40.4C208.581 40.7413 208.08 41.0827 207.504 41.424C206.949 41.7653 206.267 42.0533 205.456 42.288C204.645 42.544 203.813 42.672 202.96 42.672C197.2 42.672 194.32 39.824 194.32 34.128C194.32 33.0187 194.523 32.0053 194.928 31.088C195.333 30.1493 195.856 29.36 196.496 28.72C197.136 28.08 197.904 27.5147 198.8 27.024C199.696 26.512 200.592 26.1173 201.488 25.84C202.405 25.5413 203.365 25.296 204.368 25.104C205.371 24.912 206.267 24.784 207.056 24.72C207.845 24.656 208.603 24.624 209.328 24.624V24.048C209.328 22.7467 208.976 21.8293 208.272 21.296C207.589 20.7627 206.48 20.496 204.944 20.496C203.621 20.496 202.245 20.656 200.816 20.976C199.387 21.2747 198.267 21.6373 197.456 22.064L195.408 17.712C196.859 16.7733 198.747 15.952 201.072 15.248C203.397 14.5227 205.765 14.16 208.176 14.16C210.309 14.16 212.069 14.3733 213.456 14.8C214.843 15.2053 215.963 15.9093 216.816 16.912C217.691 17.8933 218.309 19.152 218.672 20.688C219.035 22.2027 219.216 24.1333 219.216 26.48V39.504L220.112 42H211.344L210.32 39.152ZM207.792 37.04C208.069 37.04 208.325 36.9867 208.56 36.88C208.816 36.752 209.008 36.6347 209.136 36.528C209.264 36.4 209.328 36.336 209.328 36.336V28.656C208.027 28.656 206.992 29.0187 206.224 29.744C205.456 30.448 205.072 31.5467 205.072 33.04C205.072 35.7067 205.979 37.04 207.792 37.04ZM233.644 42H223.309V21.296L221.389 20.112V16.688L228.268 14.8H233.708V18.928L234.093 18.448C234.348 18.1067 234.722 17.7013 235.212 17.232C235.724 16.7627 236.29 16.304 236.908 15.856C237.527 15.3867 238.263 14.992 239.116 14.672C239.991 14.3307 240.845 14.16 241.676 14.16C244.599 14.16 246.658 14.96 247.852 16.56C249.068 18.16 249.676 20.8373 249.676 24.592C249.676 24.72 249.676 24.912 249.676 25.168C249.655 25.424 249.644 25.6267 249.644 25.776V42H239.085V24.848C239.149 22.8427 238.295 21.84 236.524 21.84C236.396 21.84 236.268 21.8507 236.141 21.872C236.034 21.8933 235.927 21.9147 235.82 21.936C235.735 21.9573 235.628 22 235.5 22.064C235.394 22.1067 235.298 22.1493 235.212 22.192C235.127 22.2133 235.031 22.2667 234.924 22.352C234.818 22.416 234.733 22.4693 234.668 22.512C234.604 22.5547 234.508 22.6293 234.38 22.736C234.274 22.8213 234.188 22.8853 234.124 22.928C234.082 22.9707 233.996 23.0453 233.868 23.152C233.762 23.2373 233.687 23.3013 233.644 23.344V42ZM262.1 42.672C260.094 42.672 258.067 42.3413 256.019 41.68C253.971 40.9973 252.659 40.336 252.083 39.696L252.915 34.544C253.641 35.248 254.846 35.856 256.531 36.368C258.238 36.88 259.977 37.136 261.747 37.136C263.027 37.136 263.902 36.976 264.372 36.656C264.862 36.336 265.107 35.888 265.107 35.312C265.107 34.7573 264.681 34.2667 263.827 33.84C262.974 33.392 261.587 32.88 259.667 32.304C254.697 30.8107 252.211 27.7173 252.211 23.024C252.211 21.104 252.766 19.4613 253.875 18.096C254.985 16.7093 256.404 15.7067 258.132 15.088C259.859 14.4693 261.79 14.16 263.923 14.16C267.571 14.16 270.259 14.832 271.988 16.176C272.372 16.5387 272.563 16.72 272.563 16.72L271.156 21.296C269.748 19.9093 267.806 19.216 265.332 19.216C263.305 19.216 262.291 19.8133 262.291 21.008C262.291 21.3493 262.366 21.6373 262.516 21.872C262.665 22.0853 262.91 22.2773 263.251 22.448C263.614 22.5973 263.966 22.7253 264.308 22.832C264.649 22.9173 265.129 23.0453 265.748 23.216C266.366 23.3653 266.9 23.504 267.348 23.632C269.843 24.464 271.657 25.6373 272.787 27.152C273.918 28.6667 274.483 30.5547 274.483 32.816C274.483 39.3867 270.355 42.672 262.1 42.672ZM276.863 42V5.808L274.943 4.656V1.68L285.215 0.0799999H287.295V42H276.863ZM305.383 39.152L305.063 39.504C304.849 39.76 304.518 40.0587 304.07 40.4C303.644 40.7413 303.142 41.0827 302.566 41.424C302.012 41.7653 301.329 42.0533 300.519 42.288C299.708 42.544 298.876 42.672 298.023 42.672C292.263 42.672 289.383 39.824 289.383 34.128C289.383 33.0187 289.585 32.0053 289.99 31.088C290.396 30.1493 290.918 29.36 291.559 28.72C292.198 28.08 292.966 27.5147 293.863 27.024C294.758 26.512 295.654 26.1173 296.551 25.84C297.468 25.5413 298.428 25.296 299.43 25.104C300.433 24.912 301.329 24.784 302.118 24.72C302.908 24.656 303.665 24.624 304.391 24.624V24.048C304.391 22.7467 304.039 21.8293 303.334 21.296C302.652 20.7627 301.542 20.496 300.007 20.496C298.684 20.496 297.308 20.656 295.879 20.976C294.449 21.2747 293.329 21.6373 292.518 22.064L290.47 17.712C291.921 16.7733 293.809 15.952 296.135 15.248C298.46 14.5227 300.828 14.16 303.238 14.16C305.372 14.16 307.132 14.3733 308.519 14.8C309.905 15.2053 311.025 15.9093 311.878 16.912C312.753 17.8933 313.372 19.152 313.734 20.688C314.097 22.2027 314.279 24.1333 314.279 26.48V39.504L315.174 42H306.407L305.383 39.152ZM302.855 37.04C303.132 37.04 303.388 36.9867 303.623 36.88C303.878 36.752 304.07 36.6347 304.199 36.528C304.327 36.4 304.391 36.336 304.391 36.336V28.656C303.089 28.656 302.055 29.0187 301.286 29.744C300.518 30.448 300.135 31.5467 300.135 33.04C300.135 35.7067 301.041 37.04 302.855 37.04ZM325.859 42.672C322.979 42.672 320.963 41.808 319.811 40.08C318.68 38.352 318.115 35.4293 318.115 31.312V20.432H315.907V15.984L319.683 14.8L322.947 7.344H328.579V14.8H333.827V20.432H328.483V32.336C328.483 34.0427 328.728 35.1733 329.219 35.728C329.71 36.2827 330.467 36.56 331.491 36.56C331.939 36.56 332.344 36.5067 332.707 36.4C333.07 36.2933 333.368 36.144 333.603 35.952V40.304C333.283 40.624 332.867 40.944 332.355 41.264C331.843 41.5627 330.99 41.872 329.795 42.192C328.622 42.512 327.31 42.672 325.859 42.672ZM349.516 38.832C350.455 38.832 351.17 38.448 351.66 37.68C352.172 36.8907 352.428 35.8133 352.428 34.448V24.336C352.428 20.176 351.447 18.096 349.484 18.096C348.567 18.096 347.852 18.4693 347.34 19.216C346.828 19.9627 346.572 21.0187 346.572 22.384V32.784C346.572 36.816 347.554 38.832 349.516 38.832ZM349.26 42.672C344.375 42.672 340.802 41.5627 338.54 39.344C336.279 37.1253 335.148 33.584 335.148 28.72C335.148 23.8987 336.29 20.272 338.572 17.84C340.855 15.3867 344.567 14.16 349.708 14.16C354.722 14.16 358.338 15.3333 360.556 17.68C362.796 20.0053 363.916 23.536 363.916 28.272C363.916 33.1787 362.732 36.8053 360.364 39.152C358.018 41.4987 354.316 42.672 349.26 42.672ZM377.738 42H367.402V21.296L365.482 20.112V16.496L372.362 14.8H374.954L375.882 22.416C376.757 17.1893 379.562 14.576 384.298 14.576C384.832 14.576 385.386 14.672 385.962 14.864L384.874 26.256C384.426 25.8507 383.445 25.648 381.93 25.648C379.754 25.648 378.357 26.224 377.738 27.376V42Z" fill="#CDF7FF"/>
</svg>
